<svg width="1920" height="336" viewBox="0 0 1920 336" fill="none" xmlns="http://www.w3.org/2000/svg">
<path d="M1920 336H0V182.291C37.063 167.619 74.963 153.622 112.648 140.691C150.528 127.691 189.228 115.411 227.675 104.191C266.336 92.908 305.79 82.391 344.941 72.929C384.33 63.408 424.491 54.7 464.309 47.04C504.376 39.333 545.197 32.479 585.637 26.666C626.337 20.816 667.774 15.866 708.788 11.943C750.088 7.996 792.088 4.99 833.622 3.008C875.464 1.012 917.983 0 960 0C1002.02 0 1044.54 1.012 1086.38 3.009C1127.91 4.991 1169.91 7.997 1211.21 11.944C1252.23 15.864 1293.66 20.817 1334.36 26.667C1374.81 32.479 1415.63 39.334 1455.69 47.041C1495.51 54.7 1535.67 63.41 1575.06 72.928C1614.21 82.389 1653.66 92.908 1692.32 104.19C1730.77 115.411 1769.47 127.69 1807.35 140.69C1845.04 153.623 1882.94 167.62 1920 182.29V336H1920Z" fill="#183D41" fill-opacity="0.03"/>
<path d="M1920 335.999H0V279.388C36.906 264.164 74.672 249.638 112.25 236.212C150.023 222.712 188.635 209.965 227.012 198.312C265.607 186.593 305.012 175.666 344.138 165.835C383.497 155.945 423.648 146.893 463.479 138.935C503.561 130.922 544.408 123.795 584.884 117.751C625.639 111.666 667.13 106.513 708.206 102.436C749.579 98.329 791.665 95.201 833.294 93.136C875.235 91.053 917.865 89.999 960 89.999C1002.13 89.999 1044.76 91.053 1086.7 93.131C1128.33 95.194 1170.42 98.322 1211.79 102.431C1252.87 106.508 1294.36 111.661 1335.11 117.746C1375.59 123.79 1416.44 130.917 1456.52 138.93C1496.34 146.891 1536.49 155.943 1575.86 165.83C1614.98 175.661 1654.39 186.588 1692.99 198.307C1731.37 209.961 1769.98 222.712 1807.75 236.207C1845.33 249.634 1883.1 264.161 1920 279.383V335.999V335.999Z" fill="#183D41" fill-opacity="0.03"/>
<path d="M1920 336H0V329.241C36.829 313.714 74.522 298.899 112.033 285.208C149.745 271.443 188.308 258.435 226.65 246.546C265.2 234.591 304.584 223.443 343.7 213.41C383.045 203.318 423.191 194.08 463.024 185.953C503.11 177.774 543.97 170.5 584.467 164.329C625.245 158.117 666.767 152.856 707.882 148.693C749.3 144.5 791.432 141.305 833.111 139.2C875.111 137.077 917.805 136 960.001 136C1002.2 136 1044.89 137.076 1086.89 139.2C1128.57 141.307 1170.71 144.5 1212.12 148.695C1253.23 152.858 1294.76 158.118 1335.54 164.331C1376.04 170.501 1416.89 177.776 1456.98 185.954C1496.81 194.079 1536.95 203.317 1576.31 213.411C1615.41 223.442 1654.79 234.591 1693.35 246.547C1731.69 258.435 1770.25 271.447 1807.97 285.209C1845.49 298.903 1883.18 313.718 1920 329.242V336H1920Z" fill="#1D2225"/>
</svg>