<svg width="267" height="47" viewBox="0 0 267 47" fill="none" xmlns="http://www.w3.org/2000/svg">
<path d="M84 34C84 21.8497 91.3058 12 100.318 12H140V12C140 24.1503 132.694 34 123.682 34H84V34Z" fill="#4BFCAF"/>
<path d="M159 24.3071C159 18.5019 162.478 13.7959 166.768 13.7959H185.658V13.7959C185.658 19.6011 182.18 24.3071 177.89 24.3071H159V24.3071Z" fill="#4BFCAF"/>
<path d="M56 34C56 21.8497 63.4362 12 72.6093 12H113V12C113 24.1503 105.564 34 96.3907 34H56V34Z" fill="#45E9A1"/>
<path d="M30 34C30 21.8497 37.1753 12 46.0265 12H85V12C85 24.1503 77.8247 34 68.9735 34H30V34Z" fill="#3CC489"/>
<path d="M0 34C0 21.8497 7.30576 12 16.3179 12H56V12C56 24.1503 48.6942 34 39.6821 34H0V34Z" fill="#319F6F"/>
<path d="M190.34 46.6436L181.461 31.2122H178.968V46.6436H168.569V5.76495H186.022C189.387 5.76495 192.245 6.32785 194.597 7.45367C196.989 8.57948 198.772 10.1323 199.948 12.1122C201.124 14.0533 201.712 16.2272 201.712 18.6342C201.712 21.3516 200.901 23.778 199.279 25.9131C197.698 28.0483 195.347 29.5623 192.225 30.4552L202.076 46.6436H190.34ZM178.968 24.1662H185.414C187.32 24.1662 188.738 23.7197 189.671 22.8269C190.644 21.934 191.13 20.6723 191.13 19.0418C191.13 17.4889 190.644 16.2661 189.671 15.3732C188.738 14.4803 187.32 14.0339 185.414 14.0339L168.569 13.8592V24.1662H178.968Z" fill="white" fill-opacity="0.93"/>
<path d="M213.469 10.7729C211.645 10.7729 210.145 10.2682 208.969 9.25885C207.834 8.21068 207.266 6.92958 207.266 5.41556C207.266 3.86271 207.834 2.58161 208.969 1.57226C210.145 0.524085 211.645 0 213.469 0C215.253 0 216.712 0.524085 217.848 1.57226C219.023 2.58161 219.611 3.86271 219.611 5.41556C219.611 6.92958 219.023 8.21068 217.848 9.25885C216.712 10.2682 215.253 10.7729 213.469 10.7729ZM218.638 14.1503V46.6436H208.239V14.1503H218.638Z" fill="white" fill-opacity="0.93"/>
<path d="M243.201 22.4192H237.607V46.6436H227.208V22.4192H223.437V14.1503H227.208V13.2186C227.208 9.22003 228.404 6.19198 230.796 4.13446C233.188 2.03811 236.694 0.989942 241.316 0.989942C242.086 0.989942 242.654 1.00935 243.019 1.04817V9.49178C241.032 9.37532 239.634 9.64706 238.823 10.307C238.012 10.967 237.607 12.151 237.607 13.8592V14.1503H243.201V22.4192Z" fill="white" fill-opacity="0.93"/>
<path d="M267 38.2V46.6436H261.709C257.939 46.6436 255 45.7702 252.892 44.0232C250.784 42.2374 249.729 39.3453 249.729 35.3467V22.4192H245.594V14.1503H249.729V6.2308H260.128V14.1503H266.939V22.4192H260.128V35.4631C260.128 36.4337 260.371 37.1325 260.858 37.5595C261.344 37.9865 262.155 38.2 263.29 38.2H267Z" fill="white" fill-opacity="0.93"/>
</svg>
