<svg width="125" height="70" viewBox="0 0 125 70" fill="none" xmlns="http://www.w3.org/2000/svg">
<g clip-path="url(#clip0_369_66)">
<path d="M51.0848 34.521C51.0772 25.8217 53.9618 17.3667 59.2848 10.486C54.4999 5.55291 48.3515 2.16028 41.6268 0.742541C34.9022 -0.675201 27.9075 -0.0535254 21.5383 2.52796C15.1691 5.10945 9.71541 9.53325 5.87553 15.2329C2.03565 20.9325 -0.015625 27.6486 -0.015625 34.521C-0.015625 41.3934 2.03565 48.1095 5.87553 53.8091C9.71541 59.5088 15.1691 63.9326 21.5383 66.514C27.9075 69.0955 34.9022 69.7172 41.6268 68.2995C48.3515 66.8817 54.4999 63.4891 59.2848 58.556C53.9618 51.6753 51.0772 43.2203 51.0848 34.521V34.521ZM37.3998 51.369V57.534H31.6438V51.387C25.5168 50.57 21.6588 47.006 21.4438 41.724H28.0058C28.3198 44.353 30.9718 46.039 34.7918 46.039C38.3218 46.039 40.8158 44.33 40.8158 41.882C40.8158 39.814 39.1988 38.623 35.2158 37.768L30.9898 36.868C25.0778 35.631 22.1808 32.553 22.1808 27.608C22.1808 22.344 25.8458 18.644 31.6398 17.715V11.507H37.3998V17.707C43.0268 18.619 46.8238 22.264 46.9998 27.249H40.6138C40.2998 24.686 37.9138 22.98 34.6358 22.98C31.2358 22.98 28.9948 24.554 28.9948 27.025C28.9948 29.025 30.5458 30.172 34.3428 30.98L38.2518 31.811C44.7708 33.183 47.5778 35.991 47.5778 41.025C47.5778 46.725 43.7668 50.5 37.3998 51.369" fill="white"/>
<path d="M99.5 31.57V23.539C99.5 22.267 98.979 21.6313 97.937 21.632C96.895 21.6327 96.374 22.2683 96.374 23.539V31.57C96.374 32.8407 96.895 33.4763 97.937 33.477C98.979 33.4777 99.5 32.842 99.5 31.57Z" fill="white"/>
<path d="M111.258 35.561C110.216 35.561 109.695 36.198 109.695 37.472V45.5C109.695 46.7747 110.216 47.4117 111.258 47.411C112.3 47.4103 112.821 46.7733 112.821 45.5V37.472C112.821 36.1967 112.3 35.5597 111.258 35.561Z" fill="white"/>
<path d="M84.2894 23.235C82.6401 23.235 81.8154 24.2333 81.8154 26.23V42.808C81.8154 44.8033 82.6401 45.8033 84.2894 45.808C85.9388 45.8127 86.7634 44.8127 86.7634 42.808V26.23C86.7634 24.234 85.9388 23.2357 84.2894 23.235Z" fill="white"/>
<path d="M90.521 0.0849991C83.7102 0.0849991 77.0523 2.10464 71.3894 5.88851C65.7264 9.67239 61.3126 15.0506 58.7063 21.3429C56.0999 27.6353 55.4179 34.5592 56.7467 41.2391C58.0754 47.9191 61.3551 54.055 66.1711 58.8709C70.987 63.6869 77.1229 66.9666 83.8028 68.2953C90.4828 69.624 97.4067 68.9421 103.699 66.3357C109.991 63.7293 115.37 59.3156 119.153 53.6526C122.937 47.9896 124.957 41.3318 124.957 34.521C124.957 29.9988 124.066 25.5208 122.336 21.3428C120.605 17.1647 118.069 13.3685 114.871 10.1708C111.673 6.97307 107.877 4.43654 103.699 2.70602C99.5212 0.975492 95.0432 0.0848678 90.521 0.0849991ZM70.173 49.709V26.534H65.183V23.15C66.286 23.1797 77.8371 60.262 78.909 60C79.662 59.8117 69.8974 22.214 70.434 21.653C71.01 20.9673 71.4511 20.1787 71.734 19.329L63 21.653L70.173 49.709ZM74.5 43C74.6308 45.0516 51.328 45.233 74 48.886C73.2949 49.5803 69.9276 48.5413 69 48.886C68.0724 49.2307 85.2774 50.2183 84.29 50.153C83.3027 50.2185 82.3127 50.0741 81.3853 49.7294C80.4578 49.3846 79.6138 48.8474 78.909 48.153C77.5786 46.5813 76.9097 44.5548 77.043 42.5V26.534C76.912 24.4831 77.5808 22.4612 78.909 20.893C79.6144 20.1999 80.4587 19.6639 81.3861 19.3204C82.3135 18.9769 83.3032 18.8336 84.29 18.9C85.277 18.834 74.5724 15.1562 75.5 15.5C76.4276 15.8438 71.7944 21.3066 72.5 22C73.8274 23.5686 72.6308 24.4833 72.5 26.534L74.5 43ZM105 29.5V23.758C104.913 22.4518 104.16 16.0044 105 15C105.958 14.1879 96.6824 18.9001 97.938 18.9001C99.1936 18.9001 100.408 19.3459 101.366 20.158C102.204 21.1633 102.623 22.4522 102.537 23.758V31.351C102.624 32.657 102.205 33.9463 101.366 34.951C100.408 35.7631 99.1936 36.2089 97.938 36.2089C96.6824 36.2089 102.958 37.021 102 36.2089C101.16 35.2049 104.412 31.8063 104.5 30.5L105 29.5ZM102 49.709L112 19.329L100.239 49.709H102ZM114.691 48.886C113.733 49.6984 112.518 50.1443 111.262 50.1443C110.007 50.1443 117.458 49.6984 116.5 48.886C115.662 47.8808 117.414 46.3059 117.5 45L117 36.2089C116.914 34.9029 115.024 30.5052 115.862 29.5C116.82 28.6876 110.007 32.8277 111.262 32.8277C112.518 32.8277 113.733 33.2736 114.691 34.086C115.529 35.0913 115.948 36.3802 115.862 37.686V45.286C115.948 46.5918 115.529 47.8807 114.691 48.886Z" fill="white"/>
<path d="M70.3876 49.4038V23.5989H69.7739L66.5688 33.0522H62L66.8757 19.5962H74.7518V49.4038H70.3876Z" fill="#1E2425"/>
<path d="M85.5312 50C83.7127 50 82.0989 49.6593 80.6896 48.978C79.303 48.2967 78.212 47.3173 77.4164 46.0398C76.6435 44.734 76.2571 43.201 76.2571 41.4409V40.9299C76.2571 39.5673 76.4503 38.446 76.8368 37.5659C77.2232 36.6575 77.7005 35.9478 78.2688 35.4368C78.8598 34.9258 79.4167 34.571 79.9395 34.3723V33.6058C79.4167 33.3787 78.8939 33.0096 78.3711 32.4986C77.8483 31.9876 77.4164 31.3063 77.0754 30.4547C76.7572 29.603 76.5981 28.581 76.5981 27.3887V26.8777C76.5981 25.3164 76.9618 23.9538 77.6892 22.7898C78.4393 21.5975 79.4849 20.6749 80.826 20.022C82.1671 19.3407 83.7355 19 85.5312 19C87.3269 19 88.8953 19.3407 90.2364 20.022C91.5775 20.6749 92.6118 21.5975 93.3391 22.7898C94.0893 23.9538 94.4643 25.3164 94.4643 26.8777V27.3887C94.4643 28.581 94.2938 29.603 93.9529 30.4547C93.6346 31.3063 93.2141 31.9876 92.6913 32.4986C92.1913 33.0096 91.6684 33.3787 91.1229 33.6058V34.3723C91.6684 34.571 92.2253 34.9258 92.7936 35.4368C93.3619 35.9478 93.8392 36.6575 94.2256 37.5659C94.6121 38.446 94.8053 39.5673 94.8053 40.9299V41.4409C94.8053 43.201 94.4075 44.734 93.6119 46.0398C92.8391 47.3173 91.748 48.2967 90.3387 48.978C88.9521 49.6593 87.3496 50 85.5312 50ZM85.5312 45.1456C87.0996 45.1456 88.3043 44.7766 89.1454 44.0385C90.0091 43.272 90.441 42.2642 90.441 41.0151V40.6744C90.441 39.4254 90.0205 38.4318 89.1795 37.6937C88.3612 36.9272 87.1451 36.544 85.5312 36.544C83.9401 36.544 82.724 36.9272 81.8829 37.6937C81.0419 38.4318 80.6214 39.4254 80.6214 40.6744V41.0151C80.6214 42.2642 81.0419 43.272 81.8829 44.0385C82.7467 44.7766 83.9628 45.1456 85.5312 45.1456ZM85.5312 31.6896C86.986 31.6896 88.1111 31.3631 88.9067 30.7102C89.7023 30.0572 90.1 29.1346 90.1 27.9423V27.6016C90.1 26.4093 89.6909 25.4867 88.8726 24.8338C88.0543 24.1809 86.9405 23.8544 85.5312 23.8544C84.1219 23.8544 83.0081 24.1809 82.1898 24.8338C81.3715 25.4867 80.9624 26.4093 80.9624 27.6016V27.9423C80.9624 29.1346 81.3601 30.0572 82.1557 30.7102C82.9513 31.3631 84.0764 31.6896 85.5312 31.6896Z" fill="#1E2425"/>
<path d="M99.088 49.9574L96.4967 47.3599L114.84 19.0426L117.432 21.6401L99.088 49.9574ZM113.476 49.8297C111.749 49.8297 110.396 49.2619 109.419 48.1264C108.442 46.9625 107.953 45.3869 107.953 43.3997V43.1017C107.953 41.0861 108.442 39.5105 109.419 38.375C110.396 37.2111 111.749 36.6291 113.476 36.6291C115.159 36.6291 116.5 37.2111 117.5 38.375C118.5 39.5105 119 41.0861 119 43.1017V43.3997C119 45.3869 118.511 46.9625 117.534 48.1264C116.556 49.2619 115.204 49.8297 113.476 49.8297ZM113.476 46.3379C114.136 46.3379 114.647 46.0824 115.011 45.5714C115.397 45.0604 115.59 44.3933 115.59 43.5701V42.8887C115.59 42.0655 115.397 41.3984 115.011 40.8874C114.647 40.3764 114.136 40.1209 113.476 40.1209C112.817 40.1209 112.294 40.3764 111.908 40.8874C111.544 41.3984 111.363 42.0655 111.363 42.8887V43.5701C111.363 44.3933 111.544 45.0604 111.908 45.5714C112.294 46.0824 112.817 46.3379 113.476 46.3379ZM100.452 32.3709C98.7243 32.3709 97.3719 31.8031 96.3945 30.6676C95.417 29.5037 94.9283 27.9281 94.9283 25.9409V25.6429C94.9283 23.6273 95.417 22.0517 96.3945 20.9162C97.3719 19.7523 98.7243 19.1703 100.452 19.1703C102.134 19.1703 103.475 19.7523 104.475 20.9162C105.475 22.0517 105.975 23.6273 105.975 25.6429V25.9409C105.975 27.9281 105.487 29.5037 104.509 30.6676C103.532 31.8031 102.179 32.3709 100.452 32.3709ZM100.452 28.8791C101.111 28.8791 101.622 28.6236 101.986 28.1126C102.373 27.6017 102.566 26.9345 102.566 26.1113V25.4299C102.566 24.6067 102.373 23.9396 101.986 23.4286C101.622 22.9176 101.111 22.6621 100.452 22.6621C99.7927 22.6621 99.2699 22.9176 98.8834 23.4286C98.5198 23.9396 98.3379 24.6067 98.3379 25.4299V26.1113C98.3379 26.9345 98.5198 27.6017 98.8834 28.1126C99.2699 28.6236 99.7927 28.8791 100.452 28.8791Z" fill="#1E2425"/>
</g>
<defs>
<clipPath id="clip0_369_66">
<rect width="124.957" height="69.042" fill="white"/>
</clipPath>
</defs>
</svg>
