<svg width="215" height="33" viewBox="0 0 215 33" fill="none" xmlns="http://www.w3.org/2000/svg">
<path d="M130 33C130 14.7746 141.089 0 154.768 0H215V0C215 18.2254 203.911 33 190.232 33H130V33Z" fill="#4BFCAF"/>
<path d="M86 33C86 14.7746 96.9586 0 110.477 0H170V0C170 18.2254 159.041 33 145.523 33H86V33Z" fill="#45E9A1"/>
<path d="M44 33C44 14.7746 54.6977 0 67.894 0H126V0C126 18.2254 115.302 33 102.106 33H44V33Z" fill="#3CC489"/>
<path d="M0 33C0 14.7746 10.9586 0 24.4768 0H84V0C84 18.2254 73.0414 33 59.5232 33H0V33Z" fill="#319F6F"/>
</svg>
